<mxfile host="app.diagrams.net" modified="2022-08-12T03:18:39.701Z" agent="5.0 (Windows)" etag="5kL_ayWd2_Uqy4WCh32h" version="20.2.3" type="github">
  <diagram id="MozLTzWwf4WCIvoaZO9Q" name="Страница 1">
    <mxGraphModel dx="2249" dy="737" grid="1" gridSize="10" guides="1" tooltips="1" connect="1" arrows="1" fold="1" page="1" pageScale="1" pageWidth="827" pageHeight="1169" math="0" shadow="0">
      <root>
        <mxCell id="0" />
        <mxCell id="1" parent="0" />
        <mxCell id="OcK85IoI_01NV7dn-C-q-5" value="" style="edgeStyle=orthogonalEdgeStyle;rounded=0;orthogonalLoop=1;jettySize=auto;html=1;" edge="1" parent="1" source="OcK85IoI_01NV7dn-C-q-1" target="OcK85IoI_01NV7dn-C-q-4">
          <mxGeometry relative="1" as="geometry" />
        </mxCell>
        <mxCell id="OcK85IoI_01NV7dn-C-q-6" style="edgeStyle=orthogonalEdgeStyle;rounded=0;orthogonalLoop=1;jettySize=auto;html=1;exitX=1;exitY=0.5;exitDx=0;exitDy=0;exitPerimeter=0;entryX=0;entryY=0.5;entryDx=0;entryDy=0;entryPerimeter=0;" edge="1" parent="1" source="OcK85IoI_01NV7dn-C-q-1" target="OcK85IoI_01NV7dn-C-q-2">
          <mxGeometry relative="1" as="geometry" />
        </mxCell>
        <mxCell id="OcK85IoI_01NV7dn-C-q-1" value="Регистрация общего пробега единицы подвижного состава" style="points=[[0.25,0,0],[0.5,0,0],[0.75,0,0],[1,0.25,0],[1,0.5,0],[1,0.75,0],[0.75,1,0],[0.5,1,0],[0.25,1,0],[0,0.75,0],[0,0.5,0],[0,0.25,0]];shape=mxgraph.bpmn.task;whiteSpace=wrap;rectStyle=rounded;size=10;taskMarker=abstract;" vertex="1" parent="1">
          <mxGeometry x="-150" y="40" width="120" height="80" as="geometry" />
        </mxCell>
        <mxCell id="OcK85IoI_01NV7dn-C-q-8" value="" style="edgeStyle=orthogonalEdgeStyle;rounded=0;orthogonalLoop=1;jettySize=auto;html=1;" edge="1" parent="1" source="OcK85IoI_01NV7dn-C-q-2" target="OcK85IoI_01NV7dn-C-q-7">
          <mxGeometry relative="1" as="geometry" />
        </mxCell>
        <mxCell id="OcK85IoI_01NV7dn-C-q-2" value="Определение пробега до следующего ТО" style="points=[[0.25,0,0],[0.5,0,0],[0.75,0,0],[1,0.25,0],[1,0.5,0],[1,0.75,0],[0.75,1,0],[0.5,1,0],[0.25,1,0],[0,0.75,0],[0,0.5,0],[0,0.25,0]];shape=mxgraph.bpmn.task;whiteSpace=wrap;rectStyle=rounded;size=10;taskMarker=abstract;" vertex="1" parent="1">
          <mxGeometry x="200" y="40" width="120" height="80" as="geometry" />
        </mxCell>
        <mxCell id="OcK85IoI_01NV7dn-C-q-3" value="Определение пробега до следующего ТО" style="points=[[0.25,0,0],[0.5,0,0],[0.75,0,0],[1,0.25,0],[1,0.5,0],[1,0.75,0],[0.75,1,0],[0.5,1,0],[0.25,1,0],[0,0.75,0],[0,0.5,0],[0,0.25,0]];shape=mxgraph.bpmn.task;whiteSpace=wrap;rectStyle=rounded;size=10;taskMarker=abstract;" vertex="1" parent="1">
          <mxGeometry x="354" y="40" width="120" height="80" as="geometry" />
        </mxCell>
        <mxCell id="OcK85IoI_01NV7dn-C-q-4" value="&lt;div&gt;Журнал показателей оборудования&lt;/div&gt;&lt;div align=&quot;left&quot;&gt;1. Оборудование = вагон/локомотив&lt;br&gt;&lt;/div&gt;&lt;div align=&quot;left&quot;&gt;2. Тип = пробег &lt;br&gt;&lt;/div&gt;&lt;div align=&quot;left&quot;&gt;3. Значение = 23456&lt;br&gt;&lt;/div&gt;&lt;div align=&quot;left&quot;&gt;3. Единица измерения = км&lt;br&gt;&lt;/div&gt;" style="whiteSpace=wrap;html=1;" vertex="1" parent="1">
          <mxGeometry x="-205" y="220" width="230" height="130" as="geometry" />
        </mxCell>
        <mxCell id="OcK85IoI_01NV7dn-C-q-7" value="&lt;div&gt;Журнал проведенного обслуживания&lt;/div&gt;&lt;div&gt;1. Тип последнего обслуживания = текущий ремонт&lt;/div&gt;&lt;div&gt;2. Базовый показатель оборудования для ТО = пробег&lt;/div&gt;&lt;div&gt;3. Значение = 12345&lt;/div&gt;&lt;div&gt;4. Ед.измерения = км&lt;/div&gt;&lt;div&gt;5. &lt;br&gt;&lt;/div&gt;" style="whiteSpace=wrap;html=1;" vertex="1" parent="1">
          <mxGeometry x="200" y="220" width="120" height="60" as="geometry" />
        </mxCell>
      </root>
    </mxGraphModel>
  </diagram>
</mxfile>
